<?xml version="1.0" encoding="utf-8"?>
<!-- Generator: Adobe Illustrator 16.2.1, SVG Export Plug-In . SVG Version: 6.00 Build 0)  -->
<!DOCTYPE svg PUBLIC "-//W3C//DTD SVG 1.1//EN" "http://www.w3.org/Graphics/SVG/1.1/DTD/svg11.dtd">
<svg version="1.1" id="icons" xmlns="http://www.w3.org/2000/svg" xmlns:xlink="http://www.w3.org/1999/xlink" x="0px" y="0px"
	 width="62.75px" height="34.75px" viewBox="24 22.5 62.75 34.75" enable-background="new 24 22.5 62.75 34.75"
	 xml:space="preserve">
<path d="M25.697,25.665h59.606L56.207,56.116L25.697,25.665z"/>
<g id="Vater_Logo_2_">
	<g>
		<g>
			<g>
				<path fill="#FFFFFF" d="M68.206,32.837c-0.238,0.237-0.229,0.583-0.015,0.795c0.223,0.221,0.579,0.208,0.799-0.013
					c0.22-0.219,0.233-0.577,0.013-0.798C68.791,32.61,68.446,32.597,68.206,32.837z"/>
			</g>
			<g>
				<path fill="#FFFFFF" d="M60.276,40.795l-0.034,0.034l0.351,0.352l0.042-0.041c0.129-0.13,0.244-0.293,0.091-0.448
					C60.575,40.541,60.401,40.67,60.276,40.795z"/>
			</g>
			<g>
				<path fill="#FFFFFF" d="M70.786,28.653L55.835,43.604L40.927,28.696h-4.744l19.604,19.635l19.674-19.678H70.786z M58.486,44.304
					l-0.969-0.967l0.146-0.144c0.316-0.313,0.514-0.309,0.692-0.131c0.203,0.206,0.118,0.445-0.074,0.638l-0.074,0.073l0.406,0.406
					L58.486,44.304z M59.714,43.079l-0.967-0.968l0.546-0.545l0.109,0.107l-0.419,0.42l0.27,0.271l0.408-0.407l0.11,0.108
					l-0.407,0.408l0.366,0.366l0.42-0.418l0.11,0.108L59.714,43.079z M61.454,41.338l-0.709-0.108l-0.052,0.051l0.41,0.41
					l-0.129,0.128l-0.966-0.972l0.152-0.152c0.091-0.089,0.19-0.185,0.312-0.224c0.134-0.037,0.275,0.006,0.365,0.099
					c0.14,0.139,0.156,0.35,0.026,0.515l0.745,0.098L61.454,41.338z M62.762,40.073c-0.289,0.29-0.749,0.309-1.03,0.03
					c-0.284-0.287-0.267-0.752,0.031-1.051c0.089-0.087,0.203-0.158,0.322-0.191l0.141,0.141c-0.137,0.01-0.269,0.077-0.363,0.175
					c-0.228,0.225-0.222,0.582-0.008,0.795c0.212,0.211,0.566,0.222,0.793-0.006c0.099-0.098,0.159-0.23,0.17-0.37l0.145,0.141
					C62.926,39.857,62.852,39.981,62.762,40.073z M64.094,38.739c-0.234,0.234-0.535,0.212-0.749-0.002l-0.612-0.612l0.128-0.129
					l0.57,0.57c0.16,0.159,0.355,0.258,0.55,0.063c0.196-0.195,0.099-0.394-0.059-0.553l-0.571-0.568l0.127-0.126l0.612,0.611
					C64.303,38.207,64.328,38.509,64.094,38.739z M65.462,37.373c-0.167,0.164-0.409,0.176-0.586,0.043l0.103-0.153
					c0.105,0.108,0.272,0.096,0.384-0.014c0.106-0.108,0.098-0.275-0.005-0.376c-0.102-0.103-0.235-0.062-0.357-0.008l-0.101,0.042
					c-0.162,0.067-0.332,0.11-0.465-0.026c-0.157-0.157-0.104-0.394,0.047-0.549c0.114-0.114,0.262-0.154,0.408-0.114l-0.041,0.158
					c-0.101-0.021-0.178-0.007-0.256,0.071c-0.081,0.082-0.118,0.223-0.031,0.309c0.075,0.076,0.194,0.037,0.28-0.003l0.099-0.047
					c0.2-0.089,0.382-0.12,0.543,0.042C65.66,36.921,65.644,37.19,65.462,37.373z M66.745,36.089
					c-0.164,0.164-0.409,0.178-0.587,0.043l0.104-0.154c0.104,0.107,0.271,0.095,0.38-0.012c0.108-0.109,0.102-0.274-0.001-0.377
					c-0.102-0.104-0.235-0.062-0.359-0.008l-0.098,0.04c-0.164,0.07-0.332,0.111-0.466-0.021c-0.156-0.159-0.106-0.398,0.05-0.551
					c0.111-0.113,0.257-0.155,0.406-0.115l-0.044,0.16c-0.1-0.024-0.177-0.004-0.254,0.071c-0.081,0.08-0.118,0.221-0.031,0.306
					c0.075,0.076,0.193,0.038,0.278-0.003l0.103-0.042c0.199-0.092,0.381-0.125,0.543,0.036
					C66.946,35.639,66.927,35.906,66.745,36.089z M67.744,35.048l-0.968-0.967l0.128-0.127l0.968,0.968L67.744,35.048z
					 M69.102,33.733c-0.294,0.292-0.749,0.314-1.036,0.026c-0.279-0.278-0.263-0.747,0.027-1.037c0.29-0.292,0.76-0.305,1.037-0.029
					C69.418,32.982,69.396,33.438,69.102,33.733z M70.284,32.508l-1.014-1.016h1.525l-0.717-0.716l0.127-0.125l1.009,1.009
					l-1.525,0.001l0.721,0.72L70.284,32.508z"/>
			</g>
			<g>
				<path fill="#FFFFFF" d="M58.231,43.177c-0.151-0.149-0.32-0.015-0.445,0.106l-0.032,0.037l0.346,0.347l0.041-0.043
					C58.27,43.494,58.388,43.33,58.231,43.177z"/>
			</g>
		</g>
		<g>
			<g>
				<path fill="#FFFFFF" d="M48.969,32.39l1.43-3.647h0.657l-2.086,5.186l-2.094-5.186h0.658L48.969,32.39z"/>
			</g>
			<g>
				<path fill="#FFFFFF" d="M53.47,31.872h-1.711l0.855-1.993L53.47,31.872z M53.717,32.434l0.55,1.233h0.645l-2.298-5.133
					l-2.297,5.133h0.646l0.548-1.233H53.717z"/>
			</g>
			<g>
				<g>
					<path fill="#FFFFFF" d="M56.1,33.667h-0.6v-4.362h-1.142v-0.562l2.885,0l-0.001,0.562H56.1V33.667L56.1,33.667z"/>
				</g>
				<g>
					<path fill="#FFFFFF" d="M57.716,28.743H60.3v0.562h-1.985v1.377h1.927v0.562l-1.927,0.001v1.862H60.3v0.56h-2.584V28.743z"/>
				</g>
				<g>
					<path fill="#FFFFFF" d="M61.64,29.292h0.159c0.594,0,1.309,0.11,1.309,0.882c0,0.784-0.663,0.901-1.275,0.899l-0.194,0.003
						L61.64,29.292z M62.514,31.526c0.695-0.086,1.157-0.675,1.157-1.379c0-0.471-0.231-0.935-0.633-1.176
						c-0.384-0.224-0.843-0.229-1.271-0.229h-0.729v4.925l0.602-0.001v-2.082h0.248l1.418,2.082l0.727,0.001L62.514,31.526z"/>
				</g>
			</g>
		</g>
	</g>
	<g>
		<path fill="#FFFFFF" d="M56.646,48.43l0.154-0.153l0.373,0.373c0.082,0.084,0.206,0.189,0.336,0.059
			c0.134-0.134,0.027-0.259-0.055-0.34l-0.372-0.374l0.155-0.155l0.398,0.397c0.161,0.162,0.203,0.369-0.012,0.582
			c-0.215,0.216-0.419,0.174-0.582,0.013L56.646,48.43z"/>
	</g>
	<g>
		<path fill="#FFFFFF" d="M58.008,47.362c-0.063-0.003-0.123,0.017-0.176,0.066c-0.049,0.047-0.066,0.129-0.022,0.173
			c0.111,0.11,0.383-0.254,0.605-0.03c0.133,0.136,0.126,0.331-0.036,0.493c-0.11,0.108-0.243,0.137-0.374,0.114l0.019-0.181
			c0.072,0.031,0.173,0.017,0.238-0.048s0.06-0.149,0.009-0.198c-0.068-0.07-0.166-0.014-0.246,0.03
			c-0.141,0.066-0.259,0.099-0.362-0.004c-0.109-0.111-0.099-0.3,0.034-0.433c0.072-0.073,0.197-0.142,0.292-0.147L58.008,47.362z"
			/>
	</g>
	<g>
		<path fill="#FFFFFF" d="M58.993,46.921l-0.188,0.19l-0.156-0.329l0.006-0.004L58.993,46.921z M59.143,46.983l0.203,0.079
			l0.166-0.164l-0.987-0.38l-0.12,0.12l0.372,0.995l0.164-0.164l-0.074-0.209L59.143,46.983z"/>
	</g>
</g>
</svg>
