<?xml version="1.0" encoding="utf-8"?>
<!-- Generator: Adobe Illustrator 16.2.1, SVG Export Plug-In . SVG Version: 6.00 Build 0)  -->
<!DOCTYPE svg PUBLIC "-//W3C//DTD SVG 1.1//EN" "http://www.w3.org/Graphics/SVG/1.1/DTD/svg11.dtd">
<svg version="1.1" id="Layer_1" xmlns="http://www.w3.org/2000/svg" xmlns:xlink="http://www.w3.org/1999/xlink" x="0px" y="0px"
	 width="103px" height="73px" viewBox="0 0 103 73" enable-background="new 0 0 103 73" xml:space="preserve">
<g id="Vater_Logo_2_">
	<g>
		<g>
			<g>
				<path fill="#231F20" d="M78.617,25.478c-0.535,0.532-0.512,1.309-0.033,1.785c0.499,0.496,1.3,0.466,1.793-0.028
					c0.494-0.492,0.525-1.295,0.028-1.791C79.93,24.97,79.156,24.939,78.617,25.478z"/>
			</g>
			<g>
				<path fill="#231F20" d="M60.82,43.341l-0.076,0.075l0.785,0.79l0.096-0.092c0.289-0.292,0.549-0.658,0.203-1.005
					C61.49,42.769,61.1,43.06,60.82,43.341z"/>
			</g>
			<g>
				<path fill="#231F20" d="M84.408,16.089L50.852,49.646L17.39,16.184H6.743l44,44.07l44.158-44.165H84.408z M56.802,51.216
					l-2.173-2.171l0.326-0.323c0.709-0.703,1.152-0.693,1.554-0.293c0.454,0.461,0.264,1.001-0.167,1.433l-0.168,0.163l0.913,0.911
					L56.802,51.216z M59.557,48.467l-2.171-2.173l1.228-1.222l0.245,0.241l-0.942,0.942l0.607,0.609l0.916-0.912l0.248,0.243
					l-0.915,0.916l0.821,0.823l0.942-0.94l0.249,0.244L59.557,48.467z M63.464,44.559l-1.593-0.244l-0.114,0.114l0.919,0.92
					l-0.289,0.287l-2.168-2.18l0.342-0.341c0.204-0.199,0.428-0.414,0.703-0.502c0.299-0.084,0.617,0.014,0.819,0.223
					c0.313,0.31,0.351,0.785,0.06,1.154l1.671,0.221L63.464,44.559z M66.398,41.719c-0.649,0.651-1.681,0.693-2.314,0.068
					c-0.638-0.644-0.598-1.688,0.072-2.359c0.199-0.197,0.454-0.356,0.723-0.43l0.316,0.316c-0.307,0.023-0.602,0.173-0.816,0.393
					c-0.51,0.504-0.498,1.305-0.018,1.785c0.477,0.474,1.273,0.498,1.781-0.013c0.22-0.219,0.358-0.518,0.38-0.831l0.323,0.317
					C66.766,41.235,66.599,41.514,66.398,41.719z M69.388,38.725c-0.526,0.525-1.2,0.474-1.683-0.005l-1.373-1.374l0.288-0.289
					l1.28,1.279c0.359,0.358,0.799,0.578,1.234,0.14c0.439-0.438,0.221-0.883-0.131-1.239l-1.282-1.277l0.284-0.284l1.376,1.372
					C69.858,37.531,69.914,38.208,69.388,38.725z M72.458,35.658c-0.372,0.369-0.917,0.396-1.313,0.098l0.227-0.345
					c0.238,0.243,0.613,0.215,0.863-0.03c0.24-0.244,0.219-0.617-0.01-0.844c-0.23-0.231-0.529-0.14-0.803-0.019l-0.225,0.096
					c-0.363,0.151-0.746,0.247-1.045-0.058c-0.352-0.352-0.234-0.885,0.107-1.233c0.257-0.255,0.586-0.345,0.916-0.257l-0.093,0.354
					c-0.226-0.048-0.4-0.015-0.573,0.159c-0.183,0.184-0.266,0.5-0.072,0.693c0.17,0.17,0.436,0.082,0.629-0.008l0.223-0.106
					c0.449-0.2,0.855-0.269,1.219,0.095C72.904,34.646,72.866,35.25,72.458,35.658z M75.34,32.777
					c-0.369,0.368-0.92,0.4-1.318,0.098l0.236-0.347c0.234,0.241,0.607,0.213,0.852-0.027c0.243-0.246,0.227-0.616-0.002-0.846
					c-0.229-0.234-0.531-0.138-0.807-0.018l-0.22,0.09c-0.368,0.157-0.746,0.249-1.048-0.048c-0.351-0.356-0.236-0.893,0.112-1.237
					c0.251-0.255,0.577-0.349,0.912-0.259l-0.097,0.36c-0.223-0.054-0.396-0.01-0.57,0.159c-0.182,0.179-0.266,0.496-0.07,0.688
					c0.168,0.169,0.433,0.084,0.625-0.008l0.228-0.096c0.446-0.205,0.854-0.281,1.219,0.082
					C75.791,31.768,75.747,32.366,75.34,32.777z M77.58,30.442l-2.172-2.17l0.287-0.285l2.172,2.172L77.58,30.442z M80.629,27.49
					c-0.66,0.656-1.682,0.705-2.326,0.06c-0.627-0.624-0.591-1.676,0.062-2.328c0.652-0.656,1.703-0.685,2.327-0.065
					C81.338,25.804,81.289,26.828,80.629,27.49z M83.282,24.74l-2.275-2.279h3.423l-1.607-1.607l0.285-0.281l2.264,2.264
					l-3.424,0.002l1.617,1.617L83.282,24.74z"/>
			</g>
			<g>
				<path fill="#231F20" d="M56.23,48.686c-0.34-0.336-0.718-0.033-0.999,0.239l-0.073,0.082l0.775,0.779l0.093-0.096
					C56.316,49.399,56.58,49.03,56.23,48.686z"/>
			</g>
		</g>
		<g>
			<g>
				<path fill="#231F20" d="M35.44,24.474l3.209-8.185h1.474L35.44,27.928l-4.7-11.639h1.476L35.44,24.474z"/>
			</g>
			<g>
				<path fill="#231F20" d="M45.543,23.312h-3.841l1.919-4.473L45.543,23.312z M46.097,24.573l1.234,2.767h1.448l-5.158-11.52
					l-5.156,11.52h1.449l1.23-2.767H46.097z"/>
			</g>
			<g>
				<g>
					<path fill="#231F20" d="M51.446,27.34H50.1v-9.79h-2.564v-1.261l6.475,0.001l-0.001,1.26h-2.565L51.446,27.34z"/>
				</g>
				<g>
					<path fill="#231F20" d="M55.072,16.289h5.801v1.261h-4.457v3.092h4.324v1.262l-4.324,0.002v4.18h4.457v1.255h-5.801V16.289z"/>
				</g>
				<g>
					<path fill="#231F20" d="M63.879,17.521h0.357c1.334,0,2.938,0.247,2.938,1.979c0,1.759-1.488,2.023-2.862,2.018l-0.436,0.006
						L63.879,17.521z M65.841,22.537c1.562-0.194,2.599-1.515,2.599-3.095c0-1.058-0.52-2.098-1.423-2.64
						c-0.86-0.502-1.89-0.514-2.854-0.514H62.53v11.053l1.349-0.002v-4.672h0.555l3.184,4.672l1.631,0.002L65.841,22.537z"/>
				</g>
			</g>
		</g>
	</g>
	<g>
		<path fill="#231F20" d="M52.672,60.475l0.348-0.343l0.836,0.837c0.184,0.186,0.464,0.425,0.757,0.13
			c0.298-0.299,0.06-0.58-0.124-0.762l-0.836-0.839l0.347-0.347l0.894,0.891c0.365,0.363,0.457,0.827-0.025,1.306
			c-0.482,0.484-0.94,0.39-1.307,0.028L52.672,60.475z"/>
	</g>
	<g>
		<path fill="#231F20" d="M55.729,58.08c-0.143-0.008-0.277,0.036-0.395,0.149c-0.109,0.107-0.149,0.289-0.051,0.387
			c0.251,0.249,0.859-0.57,1.361-0.067c0.297,0.304,0.282,0.742-0.084,1.107c-0.244,0.242-0.544,0.307-0.838,0.257l0.042-0.407
			c0.163,0.07,0.388,0.038,0.537-0.106c0.146-0.146,0.132-0.335,0.018-0.446c-0.154-0.158-0.373-0.03-0.552,0.067
			c-0.316,0.151-0.582,0.222-0.812-0.008c-0.246-0.249-0.223-0.672,0.075-0.971c0.161-0.163,0.444-0.318,0.655-0.33L55.729,58.08z"
			/>
	</g>
	<g>
		<path fill="#231F20" d="M57.939,57.09l-0.423,0.427l-0.35-0.739l0.012-0.008L57.939,57.09z M58.275,57.229l0.455,0.177
			l0.373-0.368l-2.215-0.855l-0.271,0.271l0.836,2.233l0.368-0.368l-0.167-0.469L58.275,57.229z"/>
	</g>
</g>
</svg>
