<?xml version="1.0" encoding="utf-8"?>
<!-- Generator: Adobe Illustrator 16.2.1, SVG Export Plug-In . SVG Version: 6.00 Build 0)  -->
<!DOCTYPE svg PUBLIC "-//W3C//DTD SVG 1.1//EN" "http://www.w3.org/Graphics/SVG/1.1/DTD/svg11.dtd">
<svg version="1.1" id="Layer_1" xmlns="http://www.w3.org/2000/svg" xmlns:xlink="http://www.w3.org/1999/xlink" x="0px" y="0px"
	 width="23.077px" height="214.432px" viewBox="0 0 23.077 214.432" enable-background="new 0 0 23.077 214.432"
	 xml:space="preserve">
<path fill="#231F20" d="M12.937,202.915c3.799-0.013,3.537-3.361,3.537-3.361l-0.002-40.112l0.011-56.173
	c0,0-0.048-44.257-0.065-48.978c-0.022-6.61-0.688-20.795-0.687-20.585c-0.006-1.889-1.152-17.979-1.158-19.632
	c1.575-0.006,0.849-6.933-1.646-6.924H12.86c-2.495-0.008-3.222,6.918-1.646,6.924c-0.005,1.652-1.151,17.743-1.158,19.632
	c0.001-0.21-0.665,13.976-0.687,20.585c-0.017,4.721-0.064,48.978-0.064,48.978l0.011,56.173l-0.002,40.112
	c0,0-0.262,3.349,3.536,3.361"/>
</svg>
