<?xml version="1.0" encoding="utf-8"?>
<!-- Generator: Adobe Illustrator 16.2.1, SVG Export Plug-In . SVG Version: 6.00 Build 0)  -->
<!DOCTYPE svg PUBLIC "-//W3C//DTD SVG 1.1//EN" "http://www.w3.org/Graphics/SVG/1.1/DTD/svg11.dtd">
<svg version="1.1" id="icons" xmlns="http://www.w3.org/2000/svg" xmlns:xlink="http://www.w3.org/1999/xlink" x="0px" y="0px"
	 width="110px" height="82px" viewBox="0 0 110 82" enable-background="new 0 0 110 82" xml:space="preserve">
<g>
	
		<image overflow="visible" opacity="0.75" width="141" height="110" xlink:href="8BD8D55E0C602867.png"  transform="matrix(1 0 0 1 -15.5 -8.5)">
	</image>
	<g>
		<g>
			<g>
				<polygon points="0,-0.5 110,-0.5 110,38.031 55.561,79.281 0,38.031 				"/>
			</g>
		</g>
	</g>
</g>
<g id="Vater_Logo_2_">
	<g>
		<g>
			<g>
				<path fill="#FFFFFF" d="M83.617,25.478c-0.535,0.532-0.512,1.309-0.032,1.785c0.499,0.496,1.299,0.466,1.793-0.028
					c0.494-0.492,0.524-1.295,0.028-1.791C84.93,24.97,84.156,24.939,83.617,25.478z"/>
			</g>
			<g>
				<path fill="#FFFFFF" d="M65.82,43.341l-0.076,0.075l0.785,0.79l0.096-0.092c0.289-0.292,0.548-0.658,0.203-1.005
					C66.49,42.77,66.1,43.061,65.82,43.341z"/>
			</g>
			<g>
				<path fill="#FFFFFF" d="M89.408,16.089L55.852,49.646L22.39,16.184H11.743l44,44.07L99.9,16.089H89.408z M61.802,51.216
					l-2.173-2.171l0.326-0.322c0.709-0.703,1.152-0.691,1.554-0.293c0.455,0.461,0.265,1-0.167,1.432l-0.167,0.164l0.913,0.91
					L61.802,51.216z M64.557,48.467l-2.17-2.173l1.227-1.222l0.246,0.24l-0.94,0.94l0.604,0.608l0.916-0.911l0.248,0.241
					l-0.914,0.916l0.82,0.822l0.942-0.938l0.249,0.242L64.557,48.467z M68.464,44.559l-1.593-0.244l-0.114,0.115l0.919,0.92
					l-0.289,0.286l-2.168-2.18l0.342-0.341c0.205-0.199,0.428-0.414,0.703-0.502c0.299-0.084,0.616,0.014,0.819,0.223
					c0.313,0.311,0.351,0.785,0.06,1.154l1.672,0.221L68.464,44.559z M71.398,41.719c-0.649,0.651-1.683,0.693-2.313,0.068
					c-0.638-0.645-0.599-1.688,0.071-2.359c0.199-0.197,0.455-0.354,0.723-0.43l0.316,0.316c-0.307,0.022-0.604,0.172-0.816,0.393
					c-0.51,0.504-0.498,1.305-0.018,1.785c0.477,0.474,1.271,0.498,1.781-0.014c0.221-0.219,0.356-0.518,0.381-0.83l0.324,0.316
					C71.766,41.234,71.6,41.514,71.398,41.719z M74.389,38.725c-0.527,0.525-1.201,0.475-1.683-0.005l-1.374-1.374l0.288-0.289
					l1.28,1.279c0.357,0.357,0.797,0.578,1.231,0.141c0.44-0.438,0.224-0.884-0.131-1.24l-1.28-1.276l0.282-0.284l1.376,1.372
					C74.857,37.531,74.914,38.208,74.389,38.725z M77.458,35.658c-0.373,0.369-0.917,0.396-1.313,0.098l0.229-0.345
					c0.235,0.243,0.61,0.215,0.86-0.03c0.24-0.244,0.221-0.617-0.01-0.844c-0.229-0.231-0.529-0.14-0.804-0.019l-0.226,0.096
					c-0.362,0.151-0.745,0.247-1.043-0.058c-0.354-0.352-0.234-0.885,0.105-1.233c0.258-0.255,0.588-0.345,0.916-0.257l-0.093,0.354
					c-0.228-0.048-0.397-0.015-0.574,0.159c-0.182,0.184-0.265,0.5-0.069,0.693c0.17,0.17,0.437,0.082,0.629-0.008l0.223-0.106
					c0.449-0.2,0.855-0.269,1.219,0.095C77.904,34.646,77.866,35.25,77.458,35.658z M80.339,32.777
					c-0.368,0.368-0.919,0.4-1.317,0.098l0.235-0.347c0.234,0.241,0.606,0.213,0.853-0.027c0.242-0.246,0.229-0.616-0.002-0.846
					c-0.229-0.234-0.529-0.138-0.807-0.018l-0.22,0.09c-0.369,0.157-0.746,0.249-1.047-0.048c-0.351-0.356-0.237-0.893,0.112-1.237
					c0.25-0.255,0.576-0.349,0.912-0.259l-0.099,0.36c-0.226-0.054-0.396-0.01-0.569,0.159c-0.184,0.179-0.267,0.496-0.07,0.688
					c0.168,0.169,0.434,0.084,0.625-0.008l0.229-0.096c0.447-0.205,0.855-0.281,1.219,0.082
					C80.791,31.768,80.747,32.366,80.339,32.777z M82.58,30.442l-2.172-2.17l0.287-0.285l2.172,2.172L82.58,30.442z M85.628,27.49
					c-0.66,0.656-1.681,0.705-2.325,0.06c-0.627-0.624-0.591-1.676,0.061-2.328c0.652-0.656,1.705-0.685,2.328-0.065
					C86.337,25.804,86.29,26.828,85.628,27.49z M88.282,24.74l-2.275-2.279h3.423l-1.607-1.607l0.285-0.281l2.266,2.264
					l-3.426,0.002l1.617,1.617L88.282,24.74z"/>
			</g>
			<g>
				<path fill="#FFFFFF" d="M61.23,48.686c-0.34-0.336-0.719-0.033-1,0.239l-0.072,0.082l0.775,0.779l0.092-0.097
					C61.316,49.398,61.58,49.03,61.23,48.686z"/>
			</g>
		</g>
		<g>
			<g>
				<path fill="#FFFFFF" d="M40.44,24.474l3.209-8.185h1.474L40.44,27.928l-4.7-11.639h1.476L40.44,24.474z"/>
			</g>
			<g>
				<path fill="#FFFFFF" d="M50.543,23.312h-3.841l1.919-4.473L50.543,23.312z M51.097,24.573l1.234,2.767h1.448l-5.158-11.52
					l-5.156,11.52h1.449l1.23-2.767H51.097z"/>
			</g>
			<g>
				<g>
					<path fill="#FFFFFF" d="M56.445,27.34H55.1v-9.79h-2.564v-1.261l6.476,0.001l-0.002,1.26h-2.564V27.34L56.445,27.34z"/>
				</g>
				<g>
					<path fill="#FFFFFF" d="M60.073,16.289h5.8v1.261h-4.457v3.092h4.325v1.262l-4.325,0.002v4.18h4.457v1.255h-5.801
						C60.072,27.341,60.072,16.289,60.073,16.289z"/>
				</g>
				<g>
					<path fill="#FFFFFF" d="M68.879,17.521h0.357c1.334,0,2.938,0.247,2.938,1.979c0,1.759-1.488,2.023-2.861,2.018l-0.437,0.006
						L68.879,17.521z M70.841,22.537c1.562-0.194,2.599-1.515,2.599-3.095c0-1.058-0.52-2.098-1.422-2.64
						c-0.859-0.502-1.89-0.514-2.854-0.514h-1.635v11.053l1.351-0.002v-4.672h0.556l3.185,4.672l1.631,0.002L70.841,22.537z"/>
				</g>
			</g>
		</g>
	</g>
	<g>
		<path fill="#FFFFFF" d="M57.672,60.475l0.348-0.343l0.836,0.837c0.186,0.188,0.463,0.426,0.756,0.131
			c0.301-0.3,0.062-0.58-0.123-0.763l-0.836-0.839L59,59.15l0.895,0.892c0.363,0.363,0.457,0.827-0.024,1.306
			c-0.481,0.484-0.938,0.393-1.308,0.028L57.672,60.475z"/>
	</g>
	<g>
		<path fill="#FFFFFF" d="M60.729,58.08c-0.144-0.008-0.275,0.036-0.396,0.148c-0.108,0.105-0.149,0.289-0.05,0.388
			c0.25,0.249,0.859-0.57,1.359-0.067c0.297,0.305,0.281,0.742-0.082,1.107c-0.246,0.242-0.545,0.307-0.84,0.257l0.043-0.407
			c0.16,0.07,0.387,0.038,0.534-0.105c0.146-0.146,0.134-0.336,0.021-0.444c-0.154-0.158-0.373-0.03-0.553,0.065
			c-0.315,0.15-0.582,0.224-0.812-0.008c-0.246-0.25-0.223-0.673,0.076-0.972c0.162-0.163,0.443-0.317,0.654-0.33L60.729,58.08z"/>
	</g>
	<g>
		<path fill="#FFFFFF" d="M62.939,57.09l-0.422,0.428l-0.353-0.74l0.015-0.008L62.939,57.09z M63.275,57.229l0.455,0.18l0.373-0.368
			l-2.215-0.854l-0.271,0.271l0.836,2.232l0.369-0.369l-0.168-0.469L63.275,57.229z"/>
	</g>
</g>
</svg>
