<?xml version="1.0" encoding="utf-8"?>
<!-- Generator: Adobe Illustrator 18.1.1, SVG Export Plug-In . SVG Version: 6.00 Build 0)  -->
<svg version="1.1" id="Layer_1" xmlns="http://www.w3.org/2000/svg" xmlns:xlink="http://www.w3.org/1999/xlink" x="0px" y="0px"
	 viewBox="-133 299.5 344.8 195.5" enable-background="new -133 299.5 344.8 195.5" xml:space="preserve">
<rect x="-115.7" y="352.5" fill="none" width="337.5" height="142.5"/>
<g enable-background="new    ">
	<path fill="#F1F2F2" d="M-89.9,409.8h24.4V427h-24.4v49.7h-18.9V356.3h50.1v17.2h-31.1V409.8z"/>
	<path fill="#F1F2F2" d="M-57.5,356.3h18.9v103.2h31.1v17.2h-50.1V356.3z"/>
	<path fill="#F1F2F2" d="M-8.7,385.2c0-19.3,10.1-30.3,28.7-30.3c18.6,0,28.7,11,28.7,30.3v62.6c0,19.3-10.1,30.3-28.7,30.3
		c-18.6,0-28.7-11-28.7-30.3V385.2z M10.2,449c0,8.6,3.8,11.9,9.8,11.9c6,0,9.8-3.3,9.8-11.9v-65c0-8.6-3.8-11.9-9.8-11.9
		c-6,0-9.8,3.3-9.8,11.9V449z"/>
	<path fill="#F1F2F2" d="M95,412.5l-6.9,64.2h-26L48.8,356.3h18.4l10.1,94.9l9.1-94.9h18.2l9.5,95.6l9.8-95.6h16.5L127,476.7h-25.1
		L95,412.5z"/>
</g>
<rect x="-104.8" y="313.3" fill="none" width="68.7" height="43.6"/>
<g enable-background="new    ">
	<path fill="#F1F2F2" d="M-104.5,314.4h16v4.7h-5.4v28.3H-99v-28.3h-5.4V314.4z"/>
	<path fill="#F1F2F2" d="M-83,347.4h-5.2v-33h5.2v14.1h5.9v-14.1h5.3v33h-5.3v-14.1H-83V347.4z"/>
	<path fill="#F1F2F2" d="M-64.8,328.3h7.1v4.7h-7.1v9.7h9v4.7H-70v-33h14.1v4.7h-9V328.3z"/>
</g>
</svg>
